<?xml version="1.0" encoding="iso-8859-1"?>
<!-- Generator: Adobe Illustrator 19.0.0, SVG Export Plug-In . SVG Version: 6.00 Build 0)  -->
<svg xmlns="http://www.w3.org/2000/svg" xmlns:xlink="http://www.w3.org/1999/xlink" version="1.1" id="Capa_1" x="0px" y="0px" viewBox="0 0 480 480" style="enable-background:new 0 0 480 480;" xml:space="preserve" width="512px" height="512px">
<path id="XMLID_909_" d="M381.18,20H390V0H90v20h8.82L75,67.639v344.722L108.819,480h262.361L405,412.361V67.639L381.18,20z   M358.82,20l20,40H101.18l20-40H358.82z M315,400V230h70v30h-40v20h40v120H315z M185,240c0-51.765-39.537-94.468-90-99.501V80h200  v320H95v-60.499C145.463,334.468,185,291.765,185,240z M95,319.353V160.647c39.406,4.939,70,38.629,70,79.353  S134.406,314.413,95,319.353z M315,180h70v30h-70V180z M315,160v-30h70v30H315z M315,110V80h70v30H315z M358.819,460H121.181l-20-40  H378.82L358.819,460z" fill="#FFFFFF"/>
<g>
</g>
<g>
</g>
<g>
</g>
<g>
</g>
<g>
</g>
<g>
</g>
<g>
</g>
<g>
</g>
<g>
</g>
<g>
</g>
<g>
</g>
<g>
</g>
<g>
</g>
<g>
</g>
<g>
</g>
</svg>
