<?xml version="1.0" encoding="iso-8859-1"?>
<!-- Generator: Adobe Illustrator 19.0.0, SVG Export Plug-In . SVG Version: 6.00 Build 0)  -->
<svg xmlns="http://www.w3.org/2000/svg" xmlns:xlink="http://www.w3.org/1999/xlink" version="1.1" id="Layer_1" x="0px" y="0px" viewBox="0 0 512 512" style="enable-background:new 0 0 512 512;" xml:space="preserve" width="512px" height="512px">
<g>
	<g>
		<path d="M173.43,268.174L14.578,427.025c-19.407,19.407-19.408,50.985,0,70.396C23.98,506.823,36.48,512,49.776,512    c13.295,0,25.796-5.178,35.197-14.58l158.851-158.851L173.43,268.174z" fill="#FFFFFF"/>
	</g>
</g>
<g>
	<g>
		<path d="M499.066,106.086L405.914,12.93C397.574,4.592,386.486,0,374.695,0c-11.795,0-22.882,4.594-31.219,12.933L230.558,125.848    c-17.213,17.214-17.213,45.224,0,62.438l35.823,35.823l-47.001,47.001l21.508,21.508l47.001-47.001l35.823,35.824    c8.34,8.339,19.426,12.93,31.22,12.93c11.793,0,22.881-4.592,31.22-12.931l112.914-112.914    C516.282,151.312,516.282,123.3,499.066,106.086z M286.022,170.302l-5.685-5.685l-15.823-15.822L366.422,46.886l15.824,15.824    l5.684,5.684L286.022,170.302z M313.86,198.14l-10.753-10.753L405.013,85.479l10.755,10.755l10.753,10.753L324.615,208.894    L313.86,198.14z M363.205,247.487l-15.824-15.824l-5.684-5.684L443.605,124.07l5.685,5.685l15.823,15.823L363.205,247.487z" fill="#FFFFFF"/>
	</g>
</g>
<g>
</g>
<g>
</g>
<g>
</g>
<g>
</g>
<g>
</g>
<g>
</g>
<g>
</g>
<g>
</g>
<g>
</g>
<g>
</g>
<g>
</g>
<g>
</g>
<g>
</g>
<g>
</g>
<g>
</g>
</svg>
