<?xml version="1.0" encoding="iso-8859-1"?>
<!-- Generator: Adobe Illustrator 18.0.0, SVG Export Plug-In . SVG Version: 6.00 Build 0)  -->
<!DOCTYPE svg PUBLIC "-//W3C//DTD SVG 1.1//EN" "http://www.w3.org/Graphics/SVG/1.1/DTD/svg11.dtd">
<svg xmlns="http://www.w3.org/2000/svg" xmlns:xlink="http://www.w3.org/1999/xlink" version="1.1" id="Capa_1" x="0px" y="0px" viewBox="0 0 352.705 352.705" style="enable-background:new 0 0 352.705 352.705;" xml:space="preserve" width="512px" height="512px">
<g>
	<path d="M352.675,153.198c-0.643-13.057-6.328-25.727-17.029-37.788c-15.508-17.479-41.914-33.762-78.485-48.396   c-32.179-12.879-66.66-19.686-99.713-19.686c-36.301,0-69.918,8.2-97.233,23.715c-2.074,1.065-17.4,9.268-32.085,26.041   c-13.296,15.187-28.405,40.37-28.076,76.099c-0.043,0.324-0.064,52.639-0.049,52.826c2.465,32.718,18.82,57.739,46.052,70.456   c12.852,6.001,27.713,8.913,42.848,8.913c23.198-0.001,47.035-6.843,65.239-19.889c47.867-34.304,83.34-44.63,118.613-34.533   c23.15,6.63,42.155,5.393,56.485-3.678c12.438-7.873,20.532-21.257,23.407-38.704C352.716,208.17,352.72,153.526,352.675,153.198z    M337.259,161.732c-2.547,15.508-11.205,33.993-37.988,33.993c-6.801,0-14.459-1.21-22.764-3.595   c-4.556-1.308-9.156-2.304-13.772-3.01l59.344-66.274C334.252,135.479,339.427,148.54,337.259,161.732z M310.884,112.864   l-67.207,75.055c-26.967,0.731-54.635,11.346-88.162,33.924l117.59-131.523C288.357,97.586,300.964,105.126,310.884,112.864z    M251.587,80.939c2.439,0.976,4.809,1.96,7.148,2.948L117.237,242.149c-9.027,2.549-18.594,3.921-28.187,3.921   c-10.125,0-20.578-1.61-30.327-5.2L214.052,69.091C226.755,72.086,239.345,76.04,251.587,80.939z M157.448,62.328   c13.006,0,26.254,1.137,39.488,3.328L44.767,233.94c-11.487-7.428-20.866-18.6-25.835-34.389l122.321-136.61   C146.575,62.547,151.972,62.328,157.448,62.328z M39.037,107.398c13.685-15.452,27.946-22.971,28.075-23.035   c0.125-0.063,23.245-14.175,51.344-18.448L15.41,181C15.396,180.823,13.023,136.771,39.037,107.398z M321.22,234.604   c-10.558,6.683-25.474,7.331-44.334,1.932c-21.097-6.042-42.244-5.657-64.652,1.167c-20.083,6.118-41.942,17.761-66.828,35.594   c-25.948,18.597-65.062,22.625-93.002,9.576c-15.505-7.239-34.494-23.03-37.365-57.122c4.318,6.313,9.515,11.917,15.59,16.688   c15.302,12.015,36.049,18.632,58.421,18.632c23.684,0,47.406-7.287,65.084-19.993c36.757-26.419,65.299-38.2,92.547-38.2   c8.68,0,17.082,1.201,25.686,3.672c9.65,2.77,18.703,4.176,26.904,4.177c0.002,0,0,0,0.001,0c16.087,0,29.202-5.34,38.478-15.246   v11.244C336.166,215.797,332.002,227.78,321.22,234.604z" fill="#FFFFFF"/>
</g>
<g>
</g>
<g>
</g>
<g>
</g>
<g>
</g>
<g>
</g>
<g>
</g>
<g>
</g>
<g>
</g>
<g>
</g>
<g>
</g>
<g>
</g>
<g>
</g>
<g>
</g>
<g>
</g>
<g>
</g>
</svg>
