<?xml version="1.0" encoding="iso-8859-1"?>
<!-- Generator: Adobe Illustrator 19.0.0, SVG Export Plug-In . SVG Version: 6.00 Build 0)  -->
<svg xmlns="http://www.w3.org/2000/svg" xmlns:xlink="http://www.w3.org/1999/xlink" version="1.1" id="Capa_1" x="0px" y="0px" viewBox="0 0 512 512" style="enable-background:new 0 0 512 512;" xml:space="preserve" width="512px" height="512px">
<g>
	<g>
		<path d="M445.587,195.506L385.268,100H241v95H0v164.5h61.701C68.543,389.521,95.437,412,127.5,412s58.957-22.479,65.799-52.5    h125.402c6.842,30.021,33.736,52.5,65.799,52.5c32.063,0,58.957-22.479,65.799-52.5H512V270    C512,231.55,482.911,199.783,445.587,195.506z M61.7,329.5H30V307h41.406C66.884,313.742,63.559,321.344,61.7,329.5z M127.5,382    c-20.678,0-37.5-16.823-37.5-37.5s16.822-37.5,37.5-37.5c20.678,0,37.5,16.823,37.5,37.5S148.178,382,127.5,382z M241,329.5    h-47.701c-6.842-30.021-33.736-52.5-65.799-52.5H30v-52h211V329.5z M271,130h97.732l41.053,65H271V130z M384.5,382    c-20.678,0-37.5-16.823-37.5-37.5s16.822-37.5,37.5-37.5c20.678,0,37.5,16.823,37.5,37.5S405.178,382,384.5,382z M482,329.5    h-31.701c-6.842-30.021-33.736-52.5-65.799-52.5c-32.063,0-58.957,22.479-65.799,52.5H271V225h166c24.813,0,45,20.187,45,45V329.5    z" fill="#FFFFFF"/>
	</g>
</g>
<g>
</g>
<g>
</g>
<g>
</g>
<g>
</g>
<g>
</g>
<g>
</g>
<g>
</g>
<g>
</g>
<g>
</g>
<g>
</g>
<g>
</g>
<g>
</g>
<g>
</g>
<g>
</g>
<g>
</g>
</svg>
